<svg width="485" height="213" viewBox="0 0 485 213" fill="none" xmlns="http://www.w3.org/2000/svg">
<g clip-path="url(#clip0)">
<g clip-path="url(#clip1)">
<g filter="url(#filter0_d)">
<path d="M15.8092 130.589C13.9661 128.702 12.5838 126.698 11.6623 124.576C10.7407 122.572 10.28 120.626 10.28 118.74C10.28 116.264 11.0243 114.26 12.5129 112.727C12.7965 112.492 13.1864 112.374 13.6826 112.374C14.3915 112.374 15.1358 112.609 15.9155 113.081C16.7662 113.435 17.4042 113.965 17.8295 114.673C19.6726 117.502 21.8701 118.917 24.4221 118.917C25.5563 118.917 27.1867 118.504 29.3133 117.679C32.0779 116.264 34.24 114.496 35.7995 112.374C37.43 110.252 39.3439 106.95 41.5414 102.47C42.8883 99.523 43.8807 96.5756 44.5187 93.6282C45.2276 90.5629 45.582 87.7923 45.582 85.3165C45.582 82.6048 45.1922 80.4827 44.4124 78.9501C42.9946 75.7668 41.3997 73.4089 39.6275 71.8763C37.9262 70.2257 35.9059 69.4004 33.5666 69.4004C31.5108 69.4004 29.4905 69.872 27.5057 70.8152L21.3385 72.9373C21.0549 73.0552 20.665 73.1731 20.1688 73.291C19.7435 73.291 19.1055 75.0005 18.2548 78.4195C17.4042 81.8385 15.951 88.3228 13.8952 97.8724C12.4066 104.828 11.1661 109.839 10.1736 112.904C9.18121 115.852 8.29512 117.325 7.51535 117.325C6.6647 117.325 5.74316 116.028 4.75073 113.435C4.53807 112.845 4.0773 111.666 3.36842 109.898C2.73043 108.129 2.41144 106.42 2.41144 104.769C2.41144 103.944 2.58866 102.942 2.9431 101.763C3.29753 100.702 3.58108 99.6409 3.79375 98.5798C4.0773 97.5187 4.36085 96.045 4.6444 94.1587C5.56594 89.5607 8.22423 78.1248 12.6193 59.8508C17.0852 41.5769 20.5587 27.783 23.0398 18.4692C24.8119 11.7491 25.3436 8.2122 24.6347 7.85851C24.6347 7.50482 24.5284 6.97429 24.3157 6.26691C24.1031 5.55953 24.0322 5.02899 24.1031 4.6753C24.1031 3.96793 25.3436 2.90686 27.8247 1.4921C30.3766 0.0773454 32.1134 -0.512136 33.0349 -0.276346H33.6729C34.5945 -0.276346 35.0552 -0.571087 35.0552 -1.16057C35.197 -1.16057 35.835 -1.27846 36.9692 -1.51425C38.1743 -1.75005 39.4503 -1.75005 40.7971 -1.51425C45.8301 -0.806877 49.7999 1.61 52.7063 5.73638C55.6126 9.74485 57.0304 15.6986 56.9595 23.5977C56.8177 26.663 55.7899 30.8483 53.8759 36.1537C51.9619 41.459 49.8707 45.8212 47.6023 49.2402C46.4681 50.8907 45.1567 52.6591 43.6681 54.5455C42.2503 56.3139 41.3288 57.434 40.9035 57.9055L43.5617 59.4971C46.8935 61.6193 49.4809 64.213 51.3239 67.2783C53.167 70.3436 54.4784 74.5289 55.2582 79.8343C55.4 81.0132 55.4709 82.0743 55.4709 83.0175C55.4709 85.6112 55.1873 88.5586 54.6202 91.8597C54.124 95.1608 53.5569 98.0493 52.9189 100.525C52.4936 101.232 52.1392 101.999 51.8556 102.824C51.5721 103.649 51.3948 104.18 51.3239 104.416C51.2531 104.887 50.6151 106.715 49.41 109.898C48.2049 112.963 47.1416 115.439 46.22 117.325C41.5414 123.928 37.6781 128.172 34.6299 130.058C31.6526 132.298 28.1082 133.418 23.9967 133.418C20.3106 133.418 17.5814 132.475 15.8092 130.589ZM23.4651 57.1982C24.174 56.9624 25.5917 56.4908 27.7183 55.7834C29.845 54.9581 31.3691 54.2508 32.2906 53.6613C32.4324 53.5434 32.8577 53.1897 33.5666 52.6002C34.3463 51.8928 35.1261 50.8907 35.9059 49.5938C40.3718 42.638 43.4909 36.3894 45.263 30.8483C47.0352 26.0146 47.9213 22.5956 47.9213 20.5913C47.9213 19.1766 47.5315 17.8208 46.7517 16.5239C45.4048 13.9302 43.1719 12.6333 40.0528 12.6333C38.7059 12.6333 37.5717 12.8691 36.6502 13.3407C35.6578 13.8123 34.9134 14.4018 34.4172 15.1091C33.9919 15.6986 33.7792 16.6418 33.7792 17.9387C33.7792 18.8818 33.602 19.9429 33.2476 21.1219C32.8931 22.1829 32.5033 23.0671 32.0779 23.7745C32.007 24.4819 31.7944 25.1893 31.4399 25.8967C31.1564 26.604 30.9437 27.0756 30.802 27.3114C30.802 27.5472 30.3057 29.1388 29.3133 32.0862C28.3918 35.0336 27.5057 38.3347 26.655 41.9895C24.5284 50.3602 23.4651 55.4297 23.4651 57.1982Z" fill="#E94822"/>
<path d="M65.1936 114.142C64.9809 113.435 64.3784 112.492 63.3859 111.313C62.3935 110.134 61.8973 109.426 61.8973 109.19C61.8973 108.719 61.7201 108.07 61.3656 107.245C61.0821 106.302 60.7985 105.477 60.515 104.769C59.9479 103.826 60.3378 100.761 61.6846 95.5735C63.0315 90.386 64.8391 84.2554 67.1075 77.1816C67.5329 76.4742 68.0645 75.2363 68.7025 73.4679C69.4114 71.6994 69.8721 70.6973 70.0848 70.4615C70.0848 69.9899 70.1911 69.5773 70.4038 69.2236C70.6165 68.752 70.8646 68.5162 71.1481 68.5162L71.9988 65.6867C72.2823 64.6256 73.6646 62.0909 76.1457 58.0824C78.6268 54.0739 80.5762 51.3623 81.9939 49.9475C83.3408 48.4149 84.794 47.6486 86.3535 47.6486C88.0548 47.6486 89.508 48.4738 90.7131 50.1244L93.5841 54.1918C95.7107 57.1392 96.9158 58.8487 97.1994 59.3203L101.134 65.1562L99.326 73.9984C98.688 77.1816 98.369 80.188 98.369 83.0175C98.369 87.4975 99.1133 91.6829 100.602 95.5735C100.956 96.8703 101.417 97.8724 101.984 98.5798C102.622 99.2872 103.437 99.7588 104.43 99.9946C105.989 100.466 106.769 101.763 106.769 103.885C106.769 106.479 106.486 108.424 105.919 109.721C105.351 111.018 104.678 111.843 103.898 112.197C102.764 112.433 101.984 112.551 101.559 112.551C99.5032 112.551 97.6247 111.666 95.9234 109.898C94.2221 108.129 92.7334 105.123 91.4575 100.879C91.1739 100.171 90.784 98.8745 90.2878 96.9882C89.8625 95.1019 89.6144 93.805 89.5435 93.0976C89.0473 94.2766 88.2321 95.8092 87.0979 97.6956C79.7964 109.957 73.8773 116.087 69.3405 116.087C67.781 116.087 66.3987 115.439 65.1936 114.142ZM71.0418 99.464C72.176 99.6998 74.3735 97.5777 77.6343 93.0976C77.9888 92.626 78.3787 92.0955 78.804 91.506C79.2293 90.7987 79.6901 90.0913 80.1863 89.3839C82.1712 86.6723 83.6952 84.4322 84.7586 82.6638C85.8928 80.7775 87.027 78.5374 88.1612 75.9437L90.5005 69.5773C89.7916 66.9836 89.1536 65.2741 88.5865 64.4488C88.0194 63.5056 87.4523 63.034 86.8852 63.034C85.4674 63.034 83.6952 65.1562 81.5686 69.4004C79.442 73.5268 76.89 79.8343 73.9127 88.3228C73.133 90.445 72.495 92.685 71.9988 95.0429C71.5026 97.283 71.1836 98.7567 71.0418 99.464Z" fill="#E94822"/>
<path d="M114.243 113.081C113.251 111.784 112.471 110.546 111.904 109.367C111.337 108.188 111.16 106.538 111.372 104.416C111.585 100.407 112.117 95.7503 112.967 90.445L113.499 86.9081C113.711 83.7249 114.81 77.4764 116.795 68.1625C118.851 58.7308 120.552 52.3644 121.899 49.0633C122.608 47.8843 123.813 47.2949 125.514 47.2949C126.932 47.2949 127.924 47.7664 128.492 48.7096C129.059 49.417 129.342 50.596 129.342 52.2465C129.342 54.9581 128.314 59.7329 126.259 66.5709L125.195 70.2847C124.699 71.8173 124.274 73.2321 123.919 74.5289C123.636 75.8258 123.671 76.4153 124.026 76.2974C124.805 74.0574 126.684 70.992 129.661 67.1015C132.709 63.2109 134.801 60.794 135.935 59.8508C136.431 59.3792 137.069 58.9077 137.849 58.4361C138.629 57.9645 139.16 57.6108 139.444 57.375C140.72 56.3139 142.173 55.7834 143.803 55.7834C144.938 55.7834 145.894 56.0781 146.674 56.6676C147.525 57.1392 148.092 57.9055 148.376 58.9666C148.446 59.7919 148.624 60.4403 148.907 60.9119C149.262 61.3835 149.51 61.6782 149.652 61.7961C149.864 61.7961 150.006 61.973 150.077 62.3267C150.148 62.5625 150.183 62.7393 150.183 62.8572C150.183 63.8004 149.687 65.0383 148.695 66.5709C147.702 67.9857 146.674 68.752 145.611 68.8699C144.831 68.9878 144.016 69.2825 143.165 69.7541C142.315 70.2257 141.464 70.8152 140.613 71.5226L137.849 74.1753C135.439 76.1795 133.383 78.1837 131.682 80.188C130.051 82.0743 128.385 84.5501 126.684 87.6154C126.329 88.2049 125.798 89.0302 125.089 90.0913C124.451 91.1523 123.884 92.3902 123.388 93.805C122.891 94.6303 122.36 96.8114 121.793 100.348C121.296 103.767 121.048 105.889 121.048 106.715C120.977 107.068 120.836 107.776 120.623 108.837C120.41 109.898 120.091 110.841 119.666 111.666C119.028 112.963 118.496 113.906 118.071 114.496C117.646 115.085 117.185 115.38 116.689 115.38C115.98 115.38 115.165 114.614 114.243 113.081Z" fill="#E94822"/>
<path d="M195.325 124.753C193.624 124.517 191.922 123.633 190.221 122.1C188.52 120.567 186.96 118.976 185.543 117.325C184.125 115.675 183.168 114.555 182.672 113.965C181.467 111.961 180.545 109.839 179.907 107.599C179.269 105.241 178.737 102.176 178.312 98.403C178.17 96.9882 178.099 95.7503 178.099 94.6892C178.099 91.1523 178.454 86.8491 179.163 81.7796C179.942 76.5921 180.722 72.5836 181.502 69.7541C183.062 63.5056 186.5 53.4844 191.816 39.6905C192.1 39.219 192.277 38.9242 192.348 38.8063C192.49 38.5705 192.525 38.4526 192.454 38.4526C192.454 38.3347 192.454 38.2758 192.454 38.2758C192.454 37.4505 193.482 33.7957 195.538 27.3114C196.743 25.1893 197.345 23.3619 197.345 21.8292C197.345 21.004 197.239 20.3555 197.026 19.8839C196.814 19.4124 197.097 18.4102 197.877 16.8776C198.657 15.227 199.72 13.4586 201.067 11.5722C202.485 9.56801 203.973 7.85851 205.533 6.44375C207.447 3.96793 209.325 2.73002 211.168 2.73002C211.736 2.73002 212.196 2.90686 212.551 3.26055C212.976 3.49634 213.224 3.90898 213.295 4.49846C213.295 5.20584 214.713 4.97004 217.548 3.79108C218.824 3.31949 219.746 3.02475 220.313 2.90686C220.597 2.31738 221.305 1.84579 222.44 1.4921C223.645 1.02051 225.311 0.548928 227.437 0.0773489C228.571 0.195244 229.954 0.195244 231.584 0.0773489C233.285 -0.0405531 234.384 -0.158451 234.88 -0.276346C235.377 -0.512136 236.086 0.0183979 237.007 1.31526C237.999 2.61212 238.779 4.26267 239.346 6.26691C239.488 6.97429 239.559 7.50482 239.559 7.85851C239.559 9.62695 238.886 11.1596 237.539 12.4565C236.192 13.6354 234.242 14.4607 231.69 14.9323C229.068 15.5218 226.764 16.1113 224.779 16.7007C222.794 17.2902 220.313 18.1155 217.336 19.1766L215.103 19.8839C212.905 20.4734 211.275 21.2398 210.212 22.1829C209.148 23.1261 208.014 25.1893 206.809 28.3725C206.313 28.962 205.675 30.4946 204.895 32.9704C204.115 35.3284 203.335 37.8042 202.556 40.3979L200.429 45.1727C198.799 48.8275 197.771 51.2444 197.345 52.4234C196.991 53.4844 196.92 54.2508 197.133 54.7223C197.416 54.8402 197.912 55.0171 198.621 55.2529C199.401 55.4887 200.039 55.6655 200.535 55.7834C201.173 55.1939 202.059 54.7813 203.194 54.5455C204.328 54.3097 205.143 54.0739 205.639 53.8381L207.979 52.777C212.374 50.8907 215.599 49.5349 217.655 48.7096C219.71 47.8843 221.235 47.3538 222.227 47.118C222.581 46.6464 223.007 46.4106 223.503 46.4106C224.283 46.4106 225.027 47.0591 225.736 48.3559C226.516 49.5349 227.083 50.9497 227.437 52.6002C227.721 54.2508 227.863 55.3118 227.863 55.7834C227.863 57.7876 227.154 59.3203 225.736 60.3814C224.318 61.3245 221.483 62.6214 217.229 64.272C211.062 66.7478 207.199 68.3394 205.639 69.0468C201.032 71.2868 197.629 72.4068 195.431 72.4068C193.588 72.4068 192.702 71.4047 192.773 69.4004C192.135 68.811 191.391 69.872 190.54 72.5836C189.69 75.2953 188.945 78.6553 188.307 82.6638C187.74 86.6723 187.457 90.1502 187.457 93.0976C187.457 94.6303 187.563 95.9271 187.776 96.9882C188.414 99.8177 189.371 102.235 190.647 104.239C191.922 106.125 193.695 107.599 195.963 108.66C196.459 108.778 197.062 108.896 197.771 109.014C198.55 109.132 199.437 109.19 200.429 109.19C201.847 109.19 203.265 108.719 204.682 107.776C210.212 106.243 214.11 104.121 216.379 101.409C216.733 101.174 217.052 100.761 217.336 100.171C217.69 99.5819 218.009 99.2872 218.293 99.2872L218.186 99.6409C218.186 99.7588 218.399 99.523 218.824 98.9335C219.25 98.2261 219.71 97.5187 220.207 96.8114C222.192 93.9819 224.389 92.5671 226.799 92.5671C227.65 92.5671 228.359 92.8029 228.926 93.2745C229.564 93.6282 229.918 93.9818 229.989 94.3355C230.415 95.5145 230.202 97.4009 229.351 99.9946C228.501 102.588 227.154 105.3 225.311 108.129C223.538 110.959 221.554 113.435 219.356 115.557C215.883 118.622 211.984 120.862 207.66 122.277C203.406 123.81 199.295 124.635 195.325 124.753Z" fill="#E94822"/>
<path d="M249.467 118.917C247.269 118.917 245.214 118.092 243.3 116.441C241.386 114.791 239.862 112.727 238.727 110.252C237.593 107.658 237.026 105.123 237.026 102.647C237.026 100.643 237.522 99.6409 238.515 99.6409C239.153 99.8767 239.897 100.525 240.748 101.586C241.811 102.647 242.697 103.473 243.406 104.062C244.186 104.651 244.966 104.946 245.745 104.946C246.95 104.946 247.978 104.651 248.829 104.062C249.75 103.355 250.282 102.352 250.424 101.056C250.424 100.584 250.282 99.5819 249.999 98.0493C249.715 96.3987 249.361 94.925 248.935 93.6282C247.376 89.7376 246.312 85.9649 245.745 82.3101C245.249 78.5374 244.93 74.1753 244.788 69.2236C244.788 66.512 245.958 63.2698 248.297 59.4971C250.707 55.7245 253.472 52.3644 256.591 49.417C259.781 46.4696 262.369 44.819 264.353 44.4653C268.252 44.4653 270.591 44.9959 271.371 46.057C272.364 47.3538 273.285 49.476 274.136 52.4234C274.987 55.3708 275.412 57.8466 275.412 59.8508C275.412 60.6761 275.164 61.7372 274.668 63.034C274.242 64.213 273.959 64.9793 273.817 65.333L272.86 67.8088L272.116 70.4615C271.974 71.051 271.726 71.9352 271.371 73.1142C271.088 74.2931 270.804 75.0005 270.521 75.2363C270.308 75.4721 269.953 75.5311 269.457 75.4132C268.252 75.4132 267.153 74.5289 266.161 72.7605C265.169 70.9921 264.672 69.0468 264.672 66.9246C264.672 65.392 264.991 63.8593 265.629 62.3267C266.267 60.794 266.586 59.9098 266.586 59.674C266.586 59.2024 266.267 58.9666 265.629 58.9666C264.708 58.9666 263.29 59.7329 261.376 61.2656C259.462 62.7982 257.761 64.8614 256.272 67.4552C254.784 69.931 254.039 72.7015 254.039 75.7668C254.039 77.4174 254.216 79.3627 254.571 81.6027C254.996 83.7249 255.457 85.4933 255.953 86.9081C256.52 87.8512 257.335 90.6808 258.399 95.3966C259.533 99.9946 260.1 103.649 260.1 106.361C260.1 110.487 259.143 113.612 257.229 115.734C255.386 117.856 252.799 118.917 249.467 118.917Z" fill="#E94822"/>
<path d="M274.201 160.829C273.35 160.358 272.074 158.707 270.373 155.877C268.742 153.166 267.927 151.28 267.927 150.218C267.927 148.45 268.636 142.614 270.054 132.711C271.471 122.925 272.854 114.967 274.201 108.837C274.272 108.365 274.732 106.42 275.583 103.001C276.434 99.5819 277.249 95.4555 278.029 90.6218C278.596 87.2028 280.084 80.5417 282.495 70.6384L285.578 57.9055C286.145 55.1939 286.819 52.2465 287.598 49.0633C288.378 45.8801 288.839 43.9348 288.981 43.2274C289.264 41.8127 290.824 40.4569 293.659 39.16C293.801 39.0421 294.049 38.9832 294.404 38.9832C295.396 38.9832 296.247 39.9263 296.956 41.8127C297.168 42.5201 297.275 43.3453 297.275 44.2885C297.275 46.5285 296.885 49.1223 296.105 52.0697L295.361 55.6066L299.189 54.1918C304.151 54.6634 306.915 55.0171 307.482 55.2529C309.042 55.3708 310.141 55.8424 310.779 56.6676C311.488 57.4929 312.161 58.7898 312.799 60.5582C314.075 62.5625 314.784 64.3309 314.926 65.8635C314.997 66.3351 315.032 67.1015 315.032 68.1625C315.032 72.2889 314.075 77.0637 312.161 82.487C310.247 87.9102 308.262 91.7418 306.206 93.9818C305.498 94.4534 304.895 94.925 304.399 95.3966C303.903 95.8682 303.584 96.1629 303.442 96.2808C303.3 96.8703 302.52 97.8724 301.103 99.2872C299.685 100.702 298.054 102.058 296.211 103.355C294.439 104.651 292.915 105.418 291.639 105.654C290.93 105.889 290.115 106.007 289.193 106.007C288.414 106.007 287.811 105.83 287.386 105.477C286.535 105.241 285.968 105.123 285.684 105.123C285.472 105.123 285.365 105.359 285.365 105.83C285.365 105.948 284.905 107.599 283.983 110.782C283.132 113.847 282.14 118.976 281.006 126.168C278.95 136.425 277.142 145.797 275.583 154.286C274.803 158.294 274.342 160.475 274.201 160.829ZM287.917 90.2681C287.988 90.7397 288.414 90.9755 289.193 90.9755C290.328 90.9755 291.816 90.445 293.659 89.3839C295.502 88.3228 297.168 86.967 298.657 85.3165C300.146 83.6659 300.996 82.0154 301.209 80.3648C301.563 79.7753 302.13 78.7732 302.91 77.3585C303.69 75.8258 304.222 74.7058 304.505 73.9984C304.789 73.1731 304.93 72.5247 304.93 72.0531C304.93 71.6994 304.753 71.2278 304.399 70.6384C303.619 68.8699 302.627 67.9857 301.422 67.9857C299.862 67.9857 297.452 69.4594 294.191 72.4068C292.844 73.2321 291.958 73.9395 291.533 74.5289C291.178 75.1184 290.753 76.4153 290.257 78.4195C289.831 80.188 289.548 81.308 289.406 81.7796C288.272 86.2596 287.776 89.0891 287.917 90.2681Z" fill="#E94822"/>
<path d="M330.549 115.38C329.84 115.616 329.202 115.734 328.635 115.734C327.713 115.734 326.863 115.616 326.083 115.38C325.303 115.026 324.913 114.614 324.913 114.142C324.913 113.788 324.878 113.553 324.807 113.435C324.736 113.317 324.594 113.258 324.382 113.258C324.169 112.904 323.673 112.315 322.893 111.489C322.184 110.546 321.582 109.898 321.085 109.544C320.235 107.54 319.809 105.359 319.809 103.001C319.809 100.761 320.235 97.1651 321.085 92.2134C321.156 87.6154 322.149 82.487 324.063 76.8279C326.048 71.051 328.422 65.7457 331.187 60.9119C333.952 55.9603 336.433 52.4234 338.63 50.3012C339.693 48.5328 341.182 47.6486 343.096 47.6486C344.585 47.6486 345.896 48.1791 347.03 49.2402C347.952 50.1833 349.086 52.1876 350.433 55.2529C351.851 58.3182 352.914 61.0887 353.623 63.5646C353.765 64.3898 353.942 65.5099 354.155 66.9246C354.438 68.3394 354.58 70.0489 354.58 72.0531L354.367 77.0048C353.517 81.8385 353.091 86.2007 353.091 90.0913C352.949 91.7418 353.02 93.0976 353.304 94.1587C353.587 95.1019 353.977 95.5735 354.474 95.5735C354.828 95.5735 355.218 95.3966 355.643 95.0429C356.068 94.6892 356.565 94.5124 357.132 94.5124C358.053 94.5124 358.833 94.984 359.471 95.9271C360.109 96.8703 360.428 98.0493 360.428 99.464C360.428 100.643 360.251 101.763 359.896 102.824C359.258 105.182 358.053 107.304 356.281 109.19C354.58 111.077 352.985 112.02 351.496 112.02C350.291 112.02 349.121 110.959 347.987 108.837C346.924 106.715 346.073 103.944 345.435 100.525L344.797 96.4577L340.969 102.294L338.524 106.361C337.39 108.247 336.752 109.367 336.61 109.721C336.255 110.664 335.617 111.548 334.696 112.374C333.845 113.199 332.463 114.201 330.549 115.38ZM333.42 98.403C334.696 97.224 335.759 95.7503 336.61 93.9818C337.531 92.2134 338.666 89.7376 340.012 86.5544C340.296 85.847 340.58 85.1396 340.863 84.4322C341.147 83.607 341.501 82.7817 341.926 81.9564C343.131 79.2448 343.982 77.0637 344.478 75.4132C345.045 73.7626 345.471 71.9942 345.754 70.1078C345.471 68.5752 345.045 67.1604 344.478 65.8635C343.982 64.4488 343.521 63.6825 343.096 63.5646C341.111 63.5646 338.417 67.4552 335.015 75.2363C334.66 76.0616 334.093 77.5353 333.314 79.6574C332.605 81.7796 332.144 83.1943 331.931 83.9017C331.577 84.727 331.081 86.7312 330.443 89.9144C329.875 92.9797 329.592 94.984 329.592 95.9271C329.592 98.5209 330.053 99.8177 330.974 99.8177C331.683 99.8177 332.498 99.3461 333.42 98.403Z" fill="#E94822"/>
<path d="M402.765 113.612C398.299 113.376 396.066 109.19 396.066 101.056C396.066 98.8156 396.172 96.6345 396.385 94.5124C396.527 91.9187 396.597 90.0913 396.597 89.0302V88.146V86.2007C396.385 83.8428 395.924 82.6638 395.215 82.6638C393.939 82.6638 391.564 84.727 388.091 88.8533C384.688 92.8618 381.108 97.6956 377.351 103.355C376.217 105.359 375.26 107.245 374.48 109.014C373.772 110.546 373.24 111.489 372.885 111.843C372.531 112.197 371.964 112.374 371.184 112.374C370.192 112.138 369.058 110.9 367.782 108.66C366.506 106.42 365.655 104.416 365.23 102.647C365.23 99.3461 365.584 96.2219 366.293 93.2745C367.002 90.2092 368.065 86.3775 369.483 81.7796C370.121 78.2427 370.936 74.7058 371.928 71.1689C372.992 67.0425 373.736 63.9183 374.161 61.7961C374.658 59.5561 374.977 57.2571 375.118 54.8992C375.118 54.7813 375.083 54.7223 375.012 54.7223C375.012 54.2508 375.118 53.8381 375.331 53.4844C375.544 53.1307 375.792 52.9539 376.075 52.9539C376.217 52.6002 376.643 52.4234 377.351 52.4234C379.194 52.4234 380.789 53.2486 382.136 54.8992C383.483 56.5497 384.157 59.0845 384.157 62.5035C384.157 64.272 383.944 65.9814 383.519 67.632C383.164 69.1646 382.455 71.7584 381.392 75.4132L380.222 79.3037C380.01 80.0111 379.691 81.0722 379.265 82.487C378.84 83.7838 378.627 84.6091 378.627 84.9628C380.4 82.9585 382.491 80.3059 384.901 77.0048C388.445 72.2889 391.352 68.6341 393.62 66.0404C395.889 63.4467 397.554 62.1498 398.618 62.1498C399.539 62.1498 400.815 63.034 402.446 64.8025C404.147 66.453 405.139 67.9857 405.423 69.4004C405.423 70.2257 405.352 71.4636 405.21 73.1142C405.139 74.7647 405.069 76.2384 404.998 77.5353L405.104 83.0175C405.175 83.9607 405.21 85.3754 405.21 87.2618C405.21 91.0344 405.068 93.6871 404.785 95.2198C404.856 95.3377 404.927 95.5145 404.998 95.7503C405.069 95.9861 405.104 96.1629 405.104 96.2808L404.998 96.6345C405.069 97.8135 405.458 99.6998 406.167 102.294C406.876 104.887 407.231 106.302 407.231 106.538C407.231 107.835 406.699 109.308 405.636 110.959C404.643 112.492 403.686 113.376 402.765 113.612ZM402.658 44.2885C401.524 44.2885 400.567 43.9938 399.787 43.4043C399.008 42.8148 398.228 42.1074 397.448 41.2821C396.739 40.339 396.208 39.6906 395.853 39.3369C395.57 39.1011 395.073 38.4526 394.364 37.3916C393.656 36.2126 392.947 35.2105 392.238 34.3852C391.529 33.5599 390.926 33.1473 390.43 33.1473C389.934 33.1473 389.509 33.3831 389.154 33.8547C388.8 34.3263 388.374 35.0926 387.878 36.1537C387.595 36.861 387.24 37.5684 386.815 38.2758C386.46 38.8653 386.035 39.219 385.539 39.3369C385.468 40.0442 385.255 40.8106 384.901 41.6358C384.547 42.4611 384.298 42.579 384.157 41.9895C383.164 41.7537 382.384 41.0464 381.817 39.8674C381.25 38.6884 380.967 37.3326 380.967 35.8C380.967 34.2673 381.569 32.0273 382.774 29.0799C384.05 26.0146 385.752 23.5977 387.878 21.8292C388.729 21.3576 389.615 21.1219 390.537 21.1219C392.592 21.1219 394.223 22.065 395.428 23.9514C396.916 26.3093 398.086 27.9598 398.937 28.903C399.858 29.8462 400.744 30.3178 401.595 30.3178C401.949 30.3178 402.552 30.082 403.403 29.6104C404.324 29.1388 405.671 28.1956 407.443 26.7809C408.79 25.6019 410.031 24.5998 411.165 23.7745C411.874 23.3029 412.583 23.9514 413.291 25.7198C414 27.4883 414.284 28.962 414.142 30.1409C414.142 31.0841 413.929 32.2631 413.504 33.6778C413.079 34.9747 412.299 36.0947 411.165 37.0379C410.881 37.2737 409.995 38.0989 408.507 39.5137C406.805 41.1643 405.494 42.4022 404.572 43.2274C403.651 43.9348 403.013 44.2885 402.658 44.2885Z" fill="#E94822"/>
<path d="M424.052 116.618C423.201 116.618 422.528 116.382 422.031 115.911C421.535 115.439 420.826 114.555 419.905 113.258C418.487 110.782 417.388 108.247 416.609 105.654C415.829 102.942 415.545 100.584 415.758 98.5798C415.971 97.7545 416.041 96.9293 415.971 96.104C415.971 95.2787 415.971 94.7482 415.971 94.5124C415.687 94.0408 415.545 93.7461 415.545 93.6282C415.545 93.3924 415.616 93.2155 415.758 93.0976C415.9 92.8618 416.006 92.626 416.077 92.3903C416.502 92.3903 416.644 91.7418 416.502 90.445C416.36 89.5018 416.609 87.4386 417.247 84.2554C417.884 81.0722 418.7 78.1248 419.692 75.4132C420.472 73.291 421.606 70.6384 423.095 67.4552C424.654 64.272 426.037 61.8551 427.242 60.2045C430.786 55.135 433.976 52.0697 436.811 51.0086C438.229 50.4191 439.612 50.1244 440.958 50.1244C443.014 50.1244 444.609 51.0676 445.743 52.9539C447.303 54.015 448.437 55.5476 449.146 57.5519C449.855 59.5561 450.316 62.2088 450.528 65.5099C450.599 66.2172 450.635 67.3962 450.635 69.0468C450.635 77.7711 448.65 86.8491 444.68 96.2808C443.05 100.171 441.419 103.296 439.789 105.654C438.158 108.012 436.173 110.369 433.834 112.727C432.558 114.142 431.211 115.085 429.794 115.557C428.376 116.028 426.462 116.382 424.052 116.618ZM434.898 95.0429C436.244 93.0387 437.201 91.0344 437.768 89.0302C438.406 86.9081 439.293 83.2533 440.427 78.0658C440.852 77.0048 441.065 74.8826 441.065 71.6994C441.065 68.8699 440.817 67.2783 440.32 66.9246C439.966 66.453 439.541 66.2172 439.044 66.2172C438.406 66.2172 437.379 67.0425 435.961 68.6931C433.48 72.23 431.389 75.9437 429.687 79.8343C428.057 83.607 426.923 87.9691 426.285 92.9208C426.214 93.3924 426.178 94.0998 426.178 95.0429C426.178 99.0514 427.029 101.056 428.73 101.056C430.361 101.056 432.416 99.0514 434.898 95.0429Z" fill="#E94822"/>
<path d="M461.938 119.801C461.725 119.919 461.442 119.978 461.087 119.978C459.599 119.978 458.358 118.563 457.366 115.734C456.373 112.904 455.877 109.308 455.877 104.946C455.877 102.588 456.019 100.289 456.303 98.0493C457.082 94.6303 457.472 92.1544 457.472 90.6218C457.685 88.3818 458.394 84.3733 459.599 78.5964C460.875 72.7015 461.69 69.1647 462.044 67.9857C462.328 67.9857 462.576 67.632 462.789 66.9246C463.001 66.0993 463.108 65.2151 463.108 64.272C463.108 63.2109 463.214 62.1498 463.427 61.0888C463.71 59.9098 463.994 59.0845 464.277 58.6129C464.277 58.2592 464.348 57.6108 464.49 56.6676C464.703 55.7245 464.809 55.076 464.809 54.7223C464.809 54.4866 464.88 54.0739 465.022 53.4844C465.234 52.777 465.341 52.2465 465.341 51.8928C466.475 48.238 468.46 40.0442 471.295 27.3114C474.131 14.4607 475.549 7.32797 475.549 5.91322C475.549 4.97005 475.761 4.08582 476.187 3.26055C476.612 2.43528 477.108 2.02264 477.675 2.02264C477.888 1.66894 478.349 1.43315 479.057 1.31526C479.766 1.07947 480.333 0.961571 480.759 0.961571L482.46 3.79108C483.24 4.97004 483.842 6.03111 484.268 6.97429C484.693 7.91746 484.906 9.03747 484.906 10.3343C484.906 12.4565 484.658 14.5786 484.161 16.7007C483.736 18.705 482.425 23.5387 480.227 31.202C480.085 31.7915 479.518 33.9136 478.526 37.5684C477.817 39.9263 477.463 41.2822 477.463 41.6358C477.463 41.9895 477.321 42.7559 477.037 43.9348C476.754 44.9959 476.505 46.1159 476.293 47.2949C475.726 49.1812 474.804 52.5413 473.528 57.375C472.323 62.0909 471.721 64.6846 471.721 65.1562C471.721 66.453 471.543 67.3962 471.189 67.9857C470.976 67.9857 470.834 68.2804 470.764 68.8699C470.693 69.3415 470.657 69.6952 470.657 69.931C470.657 71.1099 470.09 74.2342 468.956 79.3037L467.999 84.4322C466.652 92.0955 465.695 97.6956 465.128 101.232C464.632 104.769 464.384 107.776 464.384 110.252C464.384 112.845 464.136 114.967 463.639 116.618C463.143 118.269 462.576 119.33 461.938 119.801Z" fill="#E94822"/>
</g>
</g>
<path d="M1.5 171.5H475" stroke="#EFD510" stroke-width="5" stroke-linecap="round"/>
</g>
<defs>
<filter id="filter0_d" x="-1.58856" y="-1.6911" width="490.494" height="170.52" filterUnits="userSpaceOnUse" color-interpolation-filters="sRGB">
<feFlood flood-opacity="0" result="BackgroundImageFix"/>
<feColorMatrix in="SourceAlpha" type="matrix" values="0 0 0 0 0 0 0 0 0 0 0 0 0 0 0 0 0 0 127 0" result="hardAlpha"/>
<feOffset dy="4"/>
<feGaussianBlur stdDeviation="2"/>
<feComposite in2="hardAlpha" operator="out"/>
<feColorMatrix type="matrix" values="0 0 0 0 0 0 0 0 0 0 0 0 0 0 0 0 0 0 0.25 0"/>
<feBlend mode="normal" in2="BackgroundImageFix" result="effect1_dropShadow"/>
<feBlend mode="normal" in="SourceGraphic" in2="effect1_dropShadow" result="shape"/>
</filter>
<clipPath id="clip0">
<rect width="485" height="213" fill="white"/>
</clipPath>
<clipPath id="clip1">
<rect width="485" height="199" fill="white" transform="translate(0 -12)"/>
</clipPath>
</defs>
</svg>
